<?xml version="1.0" encoding="iso-8859-1"?>
<!-- Generator: Adobe Illustrator 19.0.0, SVG Export Plug-In . SVG Version: 6.00 Build 0)  -->
<svg version="1.1" id="Layer_1" xmlns="http://www.w3.org/2000/svg" xmlns:xlink="http://www.w3.org/1999/xlink" x="0px" y="0px"
	 viewBox="0 0 512.001 512.001" style="enable-background:new 0 0 512.001 512.001;" xml:space="preserve">
<g>
	<g>
		<path d="M275.757,236.242c-18.936-18.936-32.649-42.186-40.053-67.697L73.468,358.765l0.002-0.002
			c-19.577,22.197-18.755,56.088,2.463,77.305c21.217,21.217,55.105,22.04,77.304,2.466l190.217-162.239
			C317.945,268.893,294.695,255.18,275.757,236.242z M199.824,336.155l-23.979-23.979l47.959-47.957l23.979,23.979L199.824,336.155z
			"/>
	</g>
</g>
<g>
	<g>
		<path d="M51.954,460.045c-4.093-4.091-7.705-8.494-10.852-13.127L0.001,488.022l23.979,23.979l41.102-41.102
			C60.449,467.751,56.047,464.14,51.954,460.045z"/>
	</g>
</g>
<g>
	<g>
		<path d="M475.582,36.418c-48.56-48.558-127.288-48.558-175.846,0c-2.256,2.256-4.405,4.577-6.451,6.956
			c0.356,6.962,2.747,16.741,8.135,28.865c11.253,25.318,31.944,53.757,58.264,80.078c26.32,26.319,54.758,47.01,80.077,58.263
			c12.127,5.39,21.903,7.78,28.863,8.135c2.381-2.046,4.701-4.197,6.957-6.453C524.14,163.708,524.14,84.977,475.582,36.418z"/>
	</g>
</g>
<g>
	<g>
		<path d="M425.989,241.572c-29.03-12.902-61.092-36.084-90.283-65.275c-29.19-29.191-52.372-61.252-65.274-90.282
			c-0.214-0.482-0.402-0.945-0.609-1.42c-14.584,43.348-4.619,93.136,29.914,127.668c34.533,34.534,84.323,44.5,127.669,29.915
			C426.931,241.973,426.469,241.784,425.989,241.572z"/>
	</g>
</g>
<g>
</g>
<g>
</g>
<g>
</g>
<g>
</g>
<g>
</g>
<g>
</g>
<g>
</g>
<g>
</g>
<g>
</g>
<g>
</g>
<g>
</g>
<g>
</g>
<g>
</g>
<g>
</g>
<g>
</g>
</svg>
