<svg width="330" height="330" xmlns="http://www.w3.org/2000/svg">

 <!-- <path d="M193.441,0h-75.484c-16.897,0-30.6,13.703-30.6,30.6v458.277c0,16.898,13.703,30.602,30.6,30.602h75.484
			c16.897,0,30.6-13.703,30.6-30.602V30.6C224.042,13.703,210.339,0,193.441,0z" /> -->
 <g>
  <title>Layer 1</title>
  <path id="svg_1" d="m281.84,150.78702l-256,-146.7c-4.96,-2.8362 -11.008,-2.771 -15.904,0.1304c-4.928,2.934 -7.936,8.2804 -7.936,14.0832l0,293.39999c0,5.8028 3.008,11.1492 7.936,14.0832c2.496,1.467 5.28,2.2168 8.064,2.2168c2.688,0 5.408,-0.6846 7.84,-2.0864l256,-146.7c5.024,-2.9014 8.16,-8.313 8.16,-14.2136s-3.136,-11.3122 -8.16,-14.2136z"/>
  <path id="svg_2" d="m308.74031,1l-41.79663,0c-9.35557,0 -16.94368,8.5856 -16.94368,19.1724l0,287.13295c0,10.58742 7.58756,19.17365 16.94368,19.17365l41.79663,0c9.35557,0 16.94368,-8.5856 16.94368,-19.17365l0,-287.13295c0,-10.5868 -7.58756,-19.1724 -16.94368,-19.1724z"/>
  <g id="svg_3"/>
  <g id="svg_4"/>
  <g id="svg_5"/>
  <g id="svg_6"/>
  <g id="svg_7"/>
  <g id="svg_8"/>
  <g id="svg_9"/>
  <g id="svg_10"/>
  <g id="svg_11"/>
  <g id="svg_12"/>
  <g id="svg_13"/>
  <g id="svg_14"/>
  <g id="svg_15"/>
  <g id="svg_16"/>
  <g id="svg_17"/>
 </g>
</svg>