<?xml version="1.0" encoding="iso-8859-1"?>
<!-- Generator: Adobe Illustrator 18.1.1, SVG Export Plug-In . SVG Version: 6.00 Build 0)  -->
<svg version="1.1" id="Capa_1" xmlns="http://www.w3.org/2000/svg" xmlns:xlink="http://www.w3.org/1999/xlink" x="0px" y="0px"
	 viewBox="0 0 320.268 320.268" style="enable-background:new 0 0 320.268 320.268;" xml:space="preserve">
<g>
	<g>
		<path style="fill:#010002;" d="M222.941,60.444c-58.541-40.891-66.079-54.548-66.879-56.37L156.15,0l-4.215,0.5
			c-12.646,1.474-17.09,10.16-17.72,15.153v221.19c-9.595-2.377-20.418-2.274-30.807,0.305
			c-13.679,3.394-25.542,10.72-33.412,20.641c-8.088,10.193-11.041,21.811-8.344,32.629c2.681,17.013,22.659,29.85,46.455,29.85
			c5.292,0,10.546-0.642,15.637-1.931c22.964-5.716,40.298-22.708,42.43-41.516h0.277l0.587-214.609
			c11.77,1.169,48.892,9.627,85.747,67.406l6.766,10.617l0.038-12.591C259.601,126.056,259.356,88.472,222.941,60.444z"/>
	</g>
</g>
<g>
</g>
<g>
</g>
<g>
</g>
<g>
</g>
<g>
</g>
<g>
</g>
<g>
</g>
<g>
</g>
<g>
</g>
<g>
</g>
<g>
</g>
<g>
</g>
<g>
</g>
<g>
</g>
<g>
</g>
</svg>
